# xmcd
#
# Track frame offsets:
# 225
# 18832
# 38862
# 55155
# 68687
# 79927
# 99537
# 120080
# 134562
# 149842
#
# Disc length: 2211 seconds
#
#
# Revision: 0
# Processed by: cddbd v1.4PL0 Copyright (c) Steve Scherf et al.
# Submitted via: FreeRIP 2.52 
#
DISCID=8708a00a
DTITLE=The Judds - River Of Time
DYEAR=1989
DGENRE=Country
TTITLE0=One Man Woman
TTITLE1=Young Love
TTITLE2=Not My Baby
TTITLE3=Let Me Tell You About Love
TTITLE4=Sleepless Nights
TTITLE5=Water Of Love
TTITLE6=River Of Time
TTITLE7=Cadillac Red
TTITLE8=Do I Dare
TTITLE9=Guardian Angel
EXTD=
EXTT0=
EXTT1=
EXTT2=
EXTT3=
EXTT4=
EXTT5=
EXTT6=
EXTT7=
EXTT8=
EXTT9=
PLAYORDER=
